<svg xmlns="http://www.w3.org/2000/svg" viewBox="0 0 700 520" role="img" aria-labelledby="title desc">
  <title>Ilustração de atendimento de beleza em domicílio</title>
  <desc>Uma cliente descansando em casa enquanto recebe atendimento de beleza.</desc>
  <defs>
    <linearGradient id="bg" x1="0" x2="1" y1="0" y2="1">
      <stop offset="0%" stop-color="#f7e9e4" />
      <stop offset="100%" stop-color="#fff" />
    </linearGradient>
    <linearGradient id="hair" x1="0" x2="1" y1="0" y2="1">
      <stop offset="0%" stop-color="#c56" />
      <stop offset="100%" stop-color="#d78" />
    </linearGradient>
  </defs>
  <rect x="0" y="0" width="700" height="520" rx="40" fill="url(#bg)" />
  <rect x="80" y="280" width="540" height="180" rx="30" fill="#fff" />
  <path d="M130 260c0-60 50-110 110-110h220c60 0 110 50 110 110" fill="#ffe5dc" />
  <path d="M170 220c0-40 35-70 80-70h180c45 0 80 30 80 70" fill="url(#hair)" />
  <circle cx="250" cy="300" r="60" fill="#f8d6c9" />
  <circle cx="450" cy="300" r="60" fill="#f8d6c9" />
  <path d="M200 340c0 25 20 45 45 45h50c25 0 45-20 45-45" fill="#f4b3a2" />
  <path d="M420 340c0 25 20 45 45 45h50c25 0 45-20 45-45" fill="#f4b3a2" />
  <circle cx="230" cy="285" r="8" fill="#6b4a4a" />
  <circle cx="270" cy="285" r="8" fill="#6b4a4a" />
  <path d="M205 310c12 10 26 10 38 0" stroke="#6b4a4a" stroke-width="6" fill="none" stroke-linecap="round" />
  <circle cx="430" cy="285" r="8" fill="#6b4a4a" />
  <circle cx="470" cy="285" r="8" fill="#6b4a4a" />
  <path d="M405 310c12 10 26 10 38 0" stroke="#6b4a4a" stroke-width="6" fill="none" stroke-linecap="round" />
  <rect x="110" y="415" width="120" height="20" rx="10" fill="#f0c6bd" />
  <rect x="470" y="415" width="120" height="20" rx="10" fill="#f0c6bd" />
  <circle cx="520" cy="100" r="50" fill="#fff" opacity=".8" />
  <path d="M490 90c12-20 42-20 54 0" stroke="#d16c6c" stroke-width="12" fill="none" stroke-linecap="round" />
  <path d="M510 120c0-12 16-12 16 0" stroke="#d16c6c" stroke-width="12" stroke-linecap="round" />
  <path d="M540 110c-8 8-18 8-26 0" stroke="#d16c6c" stroke-width="10" fill="none" stroke-linecap="round" />
</svg>
